<svg id="visual" viewBox="0 0 980 350" width="980" height="350" xmlns="http://www.w3.org/2000/svg" xmlns:xlink="http://www.w3.org/1999/xlink" version="1.1"><rect x="0" y="0" width="980" height="350" fill="#252531"></rect><path d="M0 141L14.8 138.3C29.7 135.7 59.3 130.3 89 130.7C118.7 131 148.3 137 178 135.2C207.7 133.3 237.3 123.7 267 121.5C296.7 119.3 326.3 124.7 356 125.7C385.7 126.7 415.3 123.3 445.2 120.5C475 117.7 505 115.3 534.8 116.5C564.7 117.7 594.3 122.3 624 125.5C653.7 128.7 683.3 130.3 713 132.8C742.7 135.3 772.3 138.7 802 140.3C831.7 142 861.3 142 891 137C920.7 132 950.3 122 965.2 117L980 112L980 0L965.2 0C950.3 0 920.7 0 891 0C861.3 0 831.7 0 802 0C772.3 0 742.7 0 713 0C683.3 0 653.7 0 624 0C594.3 0 564.7 0 534.8 0C505 0 475 0 445.2 0C415.3 0 385.7 0 356 0C326.3 0 296.7 0 267 0C237.3 0 207.7 0 178 0C148.3 0 118.7 0 89 0C59.3 0 29.7 0 14.8 0L0 0Z" fill="#ffffff"></path><path d="M0 116L14.8 115.3C29.7 114.7 59.3 113.3 89 113.5C118.7 113.7 148.3 115.3 178 116C207.7 116.7 237.3 116.3 267 111.5C296.7 106.7 326.3 97.3 356 97.2C385.7 97 415.3 106 445.2 108.5C475 111 505 107 534.8 104C564.7 101 594.3 99 624 98.2C653.7 97.3 683.3 97.7 713 97.2C742.7 96.7 772.3 95.3 802 96.7C831.7 98 861.3 102 891 104.3C920.7 106.7 950.3 107.3 965.2 107.7L980 108L980 0L965.2 0C950.3 0 920.7 0 891 0C861.3 0 831.7 0 802 0C772.3 0 742.7 0 713 0C683.3 0 653.7 0 624 0C594.3 0 564.7 0 534.8 0C505 0 475 0 445.2 0C415.3 0 385.7 0 356 0C326.3 0 296.7 0 267 0C237.3 0 207.7 0 178 0C148.3 0 118.7 0 89 0C59.3 0 29.7 0 14.8 0L0 0Z" fill="#e2ddf4"></path><path d="M0 78L14.8 80C29.7 82 59.3 86 89 85.2C118.7 84.3 148.3 78.7 178 77.3C207.7 76 237.3 79 267 80.3C296.7 81.7 326.3 81.3 356 80.5C385.7 79.7 415.3 78.3 445.2 77.7C475 77 505 77 534.8 77.3C564.7 77.7 594.3 78.3 624 77.5C653.7 76.7 683.3 74.3 713 75.3C742.7 76.3 772.3 80.7 802 82.7C831.7 84.7 861.3 84.3 891 84.8C920.7 85.3 950.3 86.7 965.2 87.3L980 88L980 0L965.2 0C950.3 0 920.7 0 891 0C861.3 0 831.7 0 802 0C772.3 0 742.7 0 713 0C683.3 0 653.7 0 624 0C594.3 0 564.7 0 534.8 0C505 0 475 0 445.2 0C415.3 0 385.7 0 356 0C326.3 0 296.7 0 267 0C237.3 0 207.7 0 178 0C148.3 0 118.7 0 89 0C59.3 0 29.7 0 14.8 0L0 0Z" fill="#c4bcea"></path><path d="M0 71L14.8 69.7C29.7 68.3 59.3 65.7 89 64.8C118.7 64 148.3 65 178 65C207.7 65 237.3 64 267 61.5C296.7 59 326.3 55 356 54.8C385.7 54.7 415.3 58.3 445.2 58.5C475 58.7 505 55.3 534.8 57.7C564.7 60 594.3 68 624 68.7C653.7 69.3 683.3 62.7 713 61C742.7 59.3 772.3 62.7 802 62C831.7 61.3 861.3 56.7 891 56.7C920.7 56.7 950.3 61.3 965.2 63.7L980 66L980 0L965.2 0C950.3 0 920.7 0 891 0C861.3 0 831.7 0 802 0C772.3 0 742.7 0 713 0C683.3 0 653.7 0 624 0C594.3 0 564.7 0 534.8 0C505 0 475 0 445.2 0C415.3 0 385.7 0 356 0C326.3 0 296.7 0 267 0C237.3 0 207.7 0 178 0C148.3 0 118.7 0 89 0C59.3 0 29.7 0 14.8 0L0 0Z" fill="#a69cde"></path><path d="M0 47L14.8 46.8C29.7 46.7 59.3 46.3 89 44.2C118.7 42 148.3 38 178 36.3C207.7 34.7 237.3 35.3 267 36.3C296.7 37.3 326.3 38.7 356 40.8C385.7 43 415.3 46 445.2 48.2C475 50.3 505 51.7 534.8 52.3C564.7 53 594.3 53 624 50.2C653.7 47.3 683.3 41.7 713 38.3C742.7 35 772.3 34 802 36.2C831.7 38.3 861.3 43.7 891 46.5C920.7 49.3 950.3 49.7 965.2 49.8L980 50L980 0L965.2 0C950.3 0 920.7 0 891 0C861.3 0 831.7 0 802 0C772.3 0 742.7 0 713 0C683.3 0 653.7 0 624 0C594.3 0 564.7 0 534.8 0C505 0 475 0 445.2 0C415.3 0 385.7 0 356 0C326.3 0 296.7 0 267 0C237.3 0 207.7 0 178 0C148.3 0 118.7 0 89 0C59.3 0 29.7 0 14.8 0L0 0Z" fill="#867dd3"></path><path d="M0 22L14.8 23.5C29.7 25 59.3 28 89 27.3C118.7 26.7 148.3 22.3 178 22.7C207.7 23 237.3 28 267 30.2C296.7 32.3 326.3 31.7 356 30.3C385.7 29 415.3 27 445.2 27.3C475 27.7 505 30.3 534.8 30.5C564.7 30.7 594.3 28.3 624 27.2C653.7 26 683.3 26 713 26.8C742.7 27.7 772.3 29.3 802 27.5C831.7 25.7 861.3 20.3 891 17.7C920.7 15 950.3 15 965.2 15L980 15L980 0L965.2 0C950.3 0 920.7 0 891 0C861.3 0 831.7 0 802 0C772.3 0 742.7 0 713 0C683.3 0 653.7 0 624 0C594.3 0 564.7 0 534.8 0C505 0 475 0 445.2 0C415.3 0 385.7 0 356 0C326.3 0 296.7 0 267 0C237.3 0 207.7 0 178 0C148.3 0 118.7 0 89 0C59.3 0 29.7 0 14.8 0L0 0Z" fill="#635fc7"></path></svg>