<svg id="visual" viewBox="0 0 900 450" width="900" height="450" xmlns="http://www.w3.org/2000/svg" xmlns:xlink="http://www.w3.org/1999/xlink" version="1.1"><rect x="0" y="0" width="900" height="450" fill="#252531"></rect><path d="M0 114L13.7 117.3C27.3 120.7 54.7 127.3 82 131.2C109.3 135 136.7 136 163.8 134.2C191 132.3 218 127.7 245.2 127.5C272.3 127.3 299.7 131.7 327 130.7C354.3 129.7 381.7 123.3 409 122.7C436.3 122 463.7 127 491 131.5C518.3 136 545.7 140 573 136.7C600.3 133.3 627.7 122.7 654.8 120.8C682 119 709 126 736.2 128C763.3 130 790.7 127 818 124C845.3 121 872.7 118 886.3 116.5L900 115L900 0L886.3 0C872.7 0 845.3 0 818 0C790.7 0 763.3 0 736.2 0C709 0 682 0 654.8 0C627.7 0 600.3 0 573 0C545.7 0 518.3 0 491 0C463.7 0 436.3 0 409 0C381.7 0 354.3 0 327 0C299.7 0 272.3 0 245.2 0C218 0 191 0 163.8 0C136.7 0 109.3 0 82 0C54.7 0 27.3 0 13.7 0L0 0Z" fill="#ffffff"></path><path d="M0 96L13.7 98.7C27.3 101.3 54.7 106.7 82 107.8C109.3 109 136.7 106 163.8 103.2C191 100.3 218 97.7 245.2 101.2C272.3 104.7 299.7 114.3 327 113.7C354.3 113 381.7 102 409 100.2C436.3 98.3 463.7 105.7 491 107.8C518.3 110 545.7 107 573 104.5C600.3 102 627.7 100 654.8 102.3C682 104.7 709 111.3 736.2 113.5C763.3 115.7 790.7 113.3 818 110.2C845.3 107 872.7 103 886.3 101L900 99L900 0L886.3 0C872.7 0 845.3 0 818 0C790.7 0 763.3 0 736.2 0C709 0 682 0 654.8 0C627.7 0 600.3 0 573 0C545.7 0 518.3 0 491 0C463.7 0 436.3 0 409 0C381.7 0 354.3 0 327 0C299.7 0 272.3 0 245.2 0C218 0 191 0 163.8 0C136.7 0 109.3 0 82 0C54.7 0 27.3 0 13.7 0L0 0Z" fill="#e2ddf4"></path><path d="M0 70L13.7 75C27.3 80 54.7 90 82 90C109.3 90 136.7 80 163.8 75.5C191 71 218 72 245.2 73.3C272.3 74.7 299.7 76.3 327 80.5C354.3 84.7 381.7 91.3 409 94.3C436.3 97.3 463.7 96.7 491 97C518.3 97.3 545.7 98.7 573 95.8C600.3 93 627.7 86 654.8 85.7C682 85.3 709 91.7 736.2 92.8C763.3 94 790.7 90 818 90.7C845.3 91.3 872.7 96.7 886.3 99.3L900 102L900 0L886.3 0C872.7 0 845.3 0 818 0C790.7 0 763.3 0 736.2 0C709 0 682 0 654.8 0C627.7 0 600.3 0 573 0C545.7 0 518.3 0 491 0C463.7 0 436.3 0 409 0C381.7 0 354.3 0 327 0C299.7 0 272.3 0 245.2 0C218 0 191 0 163.8 0C136.7 0 109.3 0 82 0C54.7 0 27.3 0 13.7 0L0 0Z" fill="#c4bcea"></path><path d="M0 60L13.7 63.2C27.3 66.3 54.7 72.7 82 73.2C109.3 73.7 136.7 68.3 163.8 66.2C191 64 218 65 245.2 66.8C272.3 68.7 299.7 71.3 327 72.2C354.3 73 381.7 72 409 72C436.3 72 463.7 73 491 70.2C518.3 67.3 545.7 60.7 573 57.3C600.3 54 627.7 54 654.8 56.8C682 59.7 709 65.3 736.2 67.8C763.3 70.3 790.7 69.7 818 66.5C845.3 63.3 872.7 57.7 886.3 54.8L900 52L900 0L886.3 0C872.7 0 845.3 0 818 0C790.7 0 763.3 0 736.2 0C709 0 682 0 654.8 0C627.7 0 600.3 0 573 0C545.7 0 518.3 0 491 0C463.7 0 436.3 0 409 0C381.7 0 354.3 0 327 0C299.7 0 272.3 0 245.2 0C218 0 191 0 163.8 0C136.7 0 109.3 0 82 0C54.7 0 27.3 0 13.7 0L0 0Z" fill="#a69cde"></path><path d="M0 54L13.7 51.5C27.3 49 54.7 44 82 41.5C109.3 39 136.7 39 163.8 39.8C191 40.7 218 42.3 245.2 42.7C272.3 43 299.7 42 327 42.7C354.3 43.3 381.7 45.7 409 48C436.3 50.3 463.7 52.7 491 52C518.3 51.3 545.7 47.7 573 46.5C600.3 45.3 627.7 46.7 654.8 47.2C682 47.7 709 47.3 736.2 46.7C763.3 46 790.7 45 818 43.8C845.3 42.7 872.7 41.3 886.3 40.7L900 40L900 0L886.3 0C872.7 0 845.3 0 818 0C790.7 0 763.3 0 736.2 0C709 0 682 0 654.8 0C627.7 0 600.3 0 573 0C545.7 0 518.3 0 491 0C463.7 0 436.3 0 409 0C381.7 0 354.3 0 327 0C299.7 0 272.3 0 245.2 0C218 0 191 0 163.8 0C136.7 0 109.3 0 82 0C54.7 0 27.3 0 13.7 0L0 0Z" fill="#867dd3"></path><path d="M0 34L13.7 33.8C27.3 33.7 54.7 33.3 82 33.5C109.3 33.7 136.7 34.3 163.8 33.3C191 32.3 218 29.7 245.2 28.5C272.3 27.3 299.7 27.7 327 28.2C354.3 28.7 381.7 29.3 409 29.5C436.3 29.7 463.7 29.3 491 28C518.3 26.7 545.7 24.3 573 22C600.3 19.7 627.7 17.3 654.8 18.7C682 20 709 25 736.2 26.2C763.3 27.3 790.7 24.7 818 24C845.3 23.3 872.7 24.7 886.3 25.3L900 26L900 0L886.3 0C872.7 0 845.3 0 818 0C790.7 0 763.3 0 736.2 0C709 0 682 0 654.8 0C627.7 0 600.3 0 573 0C545.7 0 518.3 0 491 0C463.7 0 436.3 0 409 0C381.7 0 354.3 0 327 0C299.7 0 272.3 0 245.2 0C218 0 191 0 163.8 0C136.7 0 109.3 0 82 0C54.7 0 27.3 0 13.7 0L0 0Z" fill="#635fc7"></path></svg>